{
	"asset":{
		"generator":"Khronos glTF Blender I/O v4.0.44",
		"version":"2.0"
	},
	"scene":0,
	"scenes":[
		{
			"name":"Scene",
			"nodes":[
				0
			]
		}
	],
	"nodes":[
		{
			"mesh":0,
			"name":"Cube.002",
			"rotation":[
				1,
				0,
				0,
				0
			],
			"scale":[
				-0.15494856238365173,
				-0.15494859218597412,
				-0.15494859218597412
			],
			"translation":[
				0.003414647653698921,
				-0.8875342607498169,
				0
			]
		}
	],
	"materials":[
		{
			"doubleSided":true,
			"name":"Material",
			"pbrMetallicRoughness":{
				"baseColorFactor":[
					0.007537441328167915,
					0,
					0.027718616649508476,
					1
				],
				"metallicFactor":0,
				"roughnessFactor":0.5
			}
		}
	],
	"meshes":[
		{
			"name":"Cube.003",
			"primitives":[
				{
					"attributes":{
						"POSITION":0,
						"NORMAL":1,
						"TEXCOORD_0":2
					},
					"indices":3,
					"material":0
				}
			]
		}
	],
	"accessors":[
		{
			"bufferView":0,
			"componentType":5126,
			"count":168454,
			"max":[
				45.96230697631836,
				12.997119903564453,
				3.6349337100982666
			],
			"min":[
				-45.96235275268555,
				-16.197341918945312,
				-66.38803100585938
			],
			"type":"VEC3"
		},
		{
			"bufferView":1,
			"componentType":5126,
			"count":168454,
			"type":"VEC3"
		},
		{
			"bufferView":2,
			"componentType":5126,
			"count":168454,
			"type":"VEC2"
		},
		{
			"bufferView":3,
			"componentType":5125,
			"count":253440,
			"type":"SCALAR"
		}
	],
	"bufferViews":[
		{
			"buffer":0,
			"byteLength":2021448,
			"byteOffset":0,
			"target":34962
		},
		{
			"buffer":0,
			"byteLength":2021448,
			"byteOffset":2021448,
			"target":34962
		},
		{
			"buffer":0,
			"byteLength":1347632,
			"byteOffset":4042896,
			"target":34962
		},
		{
			"buffer":0,
			"byteLength":1013760,
			"byteOffset":5390528,
			"target":34963
		}
	],
	"buffers":[
		{
			"byteLength":6404288,
			"uri":"glasses.bin"
		}
	]
}
